<?xml version="1.0" encoding="UTF-8"?>
<svg width="242px" height="69px" viewBox="0 0 242 69" version="1.1" xmlns="http://www.w3.org/2000/svg" xmlns:xlink="http://www.w3.org/1999/xlink">
    <!-- Generator: Sketch 42 (36781) - http://www.bohemiancoding.com/sketch -->
    <title>btnAppStoreGreen</title>
    <desc>Created with Sketch.</desc>
    <defs>
        <rect id="path-1" x="0" y="0" width="242" height="69" rx="6"></rect>
        <mask id="mask-2" maskContentUnits="userSpaceOnUse" maskUnits="objectBoundingBox" x="0" y="0" width="242" height="69" fill="white">
            <use xlink:href="#path-1"></use>
        </mask>
    </defs>
    <g id="Mockups" stroke="none" stroke-width="1" fill="none" fill-rule="evenodd">
        <g id="Home---Desktop" transform="translate(-981.000000, -514.000000)">
            <g id="box1">
                <g id="right" transform="translate(981.000000, 514.000000)">
                    <g id="downloadbuttons">
                        <g id="btnAppStoreGreen">
                            <use id="Rectangle-2" stroke="#50E3C2" mask="url(#mask-2)" stroke-width="6" fill="#4FE3C0" xlink:href="#path-1"></use>
                            <path d="M95.66,37.26 L100.86,37.26 L98.26,31.26 L95.66,37.26 Z M90.72,43 L97.16,28.34 L99.44,28.34 L105.86,43 L103.28,43 L101.76,39.46 L94.76,39.46 L93.24,43 L90.72,43 Z M108.58,43 L108.58,28.44 L114.28,28.44 C117.66,28.44 119.8,30.36 119.8,33.26 L119.8,33.32 C119.8,36.58 117.18,38.26 114,38.26 L111.04,38.26 L111.04,43 L108.58,43 Z M111.04,36.06 L114.08,36.06 C116.06,36.06 117.32,34.94 117.32,33.38 L117.32,33.34 C117.32,31.6 116.04,30.66 114.08,30.66 L111.04,30.66 L111.04,36.06 Z M122.64,43 L122.64,28.44 L128.34,28.44 C131.72,28.44 133.86,30.36 133.86,33.26 L133.86,33.32 C133.86,36.58 131.24,38.26 128.06,38.26 L125.1,38.26 L125.1,43 L122.64,43 Z M125.1,36.06 L128.14,36.06 C130.12,36.06 131.38,34.94 131.38,33.38 L131.38,33.34 C131.38,31.6 130.1,30.66 128.14,30.66 L125.1,30.66 L125.1,36.06 Z M148.18,43.2 C151.2,43.2 153.34,41.58 153.34,38.88 L153.34,38.84 C153.34,36.46 151.78,35.34 148.68,34.6 C145.82,33.94 145.14,33.4 145.14,32.24 L145.14,32.2 C145.14,31.2 146.06,30.42 147.6,30.42 C148.96,30.42 150.28,30.92 151.58,31.92 L152.92,30.06 C151.44,28.86 149.78,28.24 147.64,28.24 C144.76,28.24 142.7,29.96 142.7,32.42 L142.7,32.46 C142.7,35.12 144.42,36.06 147.56,36.8 C150.3,37.44 150.9,38.02 150.9,39.08 L150.9,39.12 C150.9,40.26 149.86,41.02 148.24,41.02 C146.42,41.02 145,40.34 143.6,39.12 L142.12,40.88 C143.86,42.44 145.94,43.2 148.18,43.2 Z M159.88,43 L162.34,43 L162.34,30.7 L166.98,30.7 L166.98,28.44 L155.22,28.44 L155.22,30.7 L159.88,30.7 L159.88,43 Z M176.02,43.24 C171.56,43.24 168.44,39.84 168.44,35.76 L168.44,35.72 C168.44,31.64 171.6,28.2 176.06,28.2 C180.52,28.2 183.64,31.6 183.64,35.68 L183.64,35.72 C183.64,39.8 180.48,43.24 176.02,43.24 Z M176.06,40.98 C179,40.98 181.06,38.64 181.06,35.76 L181.06,35.72 C181.06,32.84 178.96,30.46 176.02,30.46 C173.08,30.46 171.02,32.8 171.02,35.68 L171.02,35.72 C171.02,38.6 173.12,40.98 176.06,40.98 Z M189.4,35.68 L193.22,35.68 C195.08,35.68 196.3,34.7 196.3,33.18 L196.3,33.14 C196.3,31.56 195.14,30.66 193.2,30.66 L189.4,30.66 L189.4,35.68 Z M186.94,43 L186.94,28.44 L193.4,28.44 C195.22,28.44 196.66,28.98 197.6,29.9 C198.36,30.66 198.78,31.76 198.78,33.02 L198.78,33.06 C198.78,35.44 197.34,36.88 195.26,37.44 L199.26,43 L196.34,43 L192.7,37.86 L189.4,37.86 L189.4,43 L186.94,43 Z M202.14,43 L213,43 L213,40.8 L204.58,40.8 L204.58,36.76 L211.96,36.76 L211.96,34.56 L204.58,34.56 L204.58,30.64 L212.9,30.64 L212.9,28.44 L202.14,28.44 L202.14,43 Z" id="App-Store-Copy" fill="#FFFFFF"></path>
                            <path d="M56.5995125,34.7831 C56.551415,29.41835 61.0013351,26.80835 61.2048477,26.68685 C58.6845389,23.01935 54.7782708,22.51835 53.4055383,22.4786 C50.1248382,22.13405 46.9424374,24.4376 45.2710494,24.4376 C43.5665944,24.4376 40.9929276,22.5119 38.2192051,22.5686 C34.6497698,22.62335 31.3106012,24.6857 29.4792891,27.88835 C25.6997278,34.41845 28.5185416,44.01455 32.1396818,49.29275 C33.9508531,51.8795 36.0675938,54.76415 38.8380095,54.66275 C41.5483033,54.55265 42.5607556,52.93805 45.8316858,52.93805 C49.0722546,52.93805 50.0230819,54.6626 52.8485091,54.596 C55.7573555,54.55295 57.5886676,52.001 59.3367109,49.391 C61.4301544,46.4315 62.2706581,43.5104 62.304176,43.3607 C62.2374408,43.33895 56.6566283,41.21345 56.6001137,34.78325 L56.5995125,34.7831 Z" id="Path" fill="#FFFFFF"></path>
                            <path d="M51.2621936,19.0067 C52.720149,17.1872 53.7174204,14.7122 53.4405592,12.2003 C51.3307326,12.2936 48.6919838,13.6568 47.1725538,15.43625 C45.8285295,17.0042 44.6275951,19.5743 44.9375234,21.99125 C47.307828,22.16765 49.7412607,20.7977 51.2623439,19.0067 L51.2621936,19.0067 Z" id="Path" fill="#FFFFFF"></path>
                        </g>
                    </g>
                </g>
            </g>
        </g>
    </g>
</svg>