<svg xmlns="http://www.w3.org/2000/svg" width="1481" height="504" viewBox="0 0 1481 504"><title>Artboard 1</title><g transform="translate(2 2)" fill="none" fill-rule="evenodd"><rect stroke="#FFF" stroke-width="2" fill="#000" width="1477" height="500" rx="60" fill-opacity=".7"/><path d="M323.34 238.554c-.32-35.765 29.286-53.165 30.64-53.975-16.768-24.45-42.757-27.79-51.89-28.055-21.827-2.297-43 13.06-54.12 13.06-11.34 0-28.463-12.838-46.917-12.46-23.748.365-45.964 14.114-58.148 35.465-25.146 43.534-6.392 107.508 17.7 142.696 12.05 17.245 26.133 36.476 44.565 35.8 18.032-.734 24.768-11.498 46.53-11.498 21.56 0 27.886 11.497 46.684 11.053 19.353-.287 31.537-17.3 43.167-34.7 13.928-19.73 19.52-39.204 19.743-40.202-.444-.145-37.574-14.315-37.95-57.183M287.83 133.378c9.7-12.13 16.335-28.63 14.493-45.376-14.037.622-31.593 9.71-41.702 21.573-8.942 10.453-16.932 27.587-14.87 43.7 15.77 1.176 31.96-7.957 42.08-19.897M584.53 368.61h-25.202l-13.805-43.378H497.54l-13.15 43.378h-24.535l47.55-147.678h29.363l47.76 147.678zm-43.168-61.577l-12.484-38.55c-1.32-3.95-3.806-13.228-7.446-27.83h-.444c-1.465 6.28-3.806 15.556-7.013 27.83l-12.273 38.55h39.66zm165.21 7.025c0 18.11-4.915 32.425-14.76 42.934-8.81 9.354-19.762 14.026-32.823 14.026-14.106 0-24.248-5.027-30.407-15.114v55.873h-23.66V297.124c0-11.375-.3-23.037-.876-35h20.807l1.32 16.89h.445c7.89-12.73 19.862-19.087 35.93-19.087 12.562 0 23.05 4.96 31.44 14.892 8.376 9.952 12.582 23.024 12.582 39.237zm-24.102.865c0-10.364-2.33-18.91-7.013-25.634-5.116-7.004-11.985-10.52-20.596-10.52-5.835 0-11.14 1.952-15.877 5.813-4.75 3.873-7.857 8.944-9.31 15.236-.733 2.92-1.1 5.304-1.1 7.19v17.777c0 7.724 2.375 14.26 7.125 19.61 4.75 5.325 10.92 8 18.51 8 8.91 0 15.846-3.452 20.806-10.298 4.972-6.87 7.457-15.925 7.457-27.178zm146.58-.865c0 18.11-4.916 32.425-14.76 42.934-8.82 9.354-19.763 14.026-32.835 14.026-14.093 0-24.236-5.027-30.406-15.114v55.873h-23.66V297.124c0-11.375-.3-23.037-.877-35h20.807l1.32 16.89h.445c7.88-12.73 19.853-19.087 35.932-19.087 12.55 0 23.048 4.96 31.45 14.892 8.366 9.952 12.583 23.024 12.583 39.237zm-24.114.865c0-10.364-2.34-18.91-7.024-25.634-5.105-7.004-11.963-10.52-20.574-10.52-5.837 0-11.14 1.952-15.902 5.813-4.738 3.873-7.845 8.944-9.3 15.236-.72 2.92-1.11 5.304-1.11 7.19v17.777c0 7.724 2.387 14.26 7.114 19.61 4.75 5.314 10.92 8 18.532 8 8.922 0 15.858-3.452 20.807-10.298 4.97-6.87 7.455-15.925 7.455-27.178zm161.05 12.273c0 12.562-4.384 22.782-13.128 30.672-9.61 8.612-23.026 12.928-40.226 12.928-15.89 0-28.63-3.063-38.24-9.2l5.47-19.718c10.376 6.136 21.773 9.21 34.18 9.21 8.92 0 15.856-2.02 20.806-6.026 4.97-4.028 7.468-9.388 7.468-16.09 0-6.004-2.064-11.042-6.148-15.136-4.095-4.073-10.864-7.89-20.363-11.375-25.856-9.64-38.795-23.756-38.795-42.3 0-12.117 4.572-22.04 13.683-29.794 9.122-7.746 21.217-11.62 36.265-11.62 13.438 0 24.635 2.343 33.524 7.014l-5.937 19.286c-8.367-4.528-17.81-6.79-28.375-6.79-8.345 0-14.903 2.052-19.575 6.135-3.94 3.653-5.948 8.103-5.948 13.385 0 5.826 2.275 10.664 6.813 14.448 3.93 3.507 11.097 7.313 21.462 11.397 12.717 5.126 22.05 11.096 28.042 17.954 6.025 6.858 9.022 15.413 9.022 25.622m78.422-47.316h-26.078v51.7c0 13.15 4.594 19.708 13.804 19.708 4.228 0 7.735-.355 10.51-1.1l.654 17.967c-4.66 1.742-10.797 2.62-18.388 2.62-9.354 0-16.645-2.864-21.927-8.557-5.26-5.704-7.89-15.258-7.89-28.707v-53.674h-15.525V262.08h15.525v-19.498l23.237-7.013v26.51h26.078v17.8m117.427 34.61c0 16.368-4.672 29.807-14.026 40.316-9.78 10.808-22.784 16.212-38.997 16.212-15.647 0-28.086-5.182-37.363-15.547-9.276-10.362-13.915-23.434-13.915-39.203 0-16.5 4.805-30.017 14.348-40.526 9.566-10.51 22.46-15.78 38.673-15.78 15.636 0 28.175 5.206 37.685 15.56 9.08 10.064 13.596 23.036 13.596 38.97zm-24.524.544c0-9.754-2.106-18.12-6.334-25.123-4.96-8.454-12.074-12.67-21.262-12.67-9.466 0-16.756 4.216-21.695 12.672-4.25 7.003-6.348 15.514-6.348 25.568 0 9.765 2.098 18.155 6.348 25.124 5.116 8.466 12.25 12.694 21.506 12.694 9.033 0 16.124-4.327 21.262-12.894 4.34-7.17 6.525-15.59 6.525-25.368zm101.46-32.104c-2.34-.432-4.85-.643-7.457-.643-8.323 0-14.76 3.118-19.287 9.42-3.94 5.55-5.903 12.563-5.903 21.03v55.873h-23.66v-72.95c0-12.263-.232-23.46-.687-33.525h20.607l.866 20.374h.653c2.507-7.004 6.436-12.65 11.83-16.87 5.28-3.817 10.963-5.714 17.1-5.714 2.185 0 4.16.166 5.914.433l.022 22.57m105.81 27.4c0 4.238-.278 7.81-.866 10.73h-70.965c.253 10.52 3.704 18.576 10.285 24.125 5.98 4.95 13.727 7.434 23.214 7.434 10.51 0 20.096-1.666 28.72-5.04l3.705 16.424c-10.076 4.383-21.983 6.58-35.7 6.58-16.51 0-29.473-4.86-38.905-14.56-9.398-9.71-14.125-22.77-14.125-39.104 0-16.045 4.372-29.417 13.16-40.08 9.19-11.387 21.606-17.08 37.23-17.08 15.348 0 26.966 5.693 34.845 17.08 6.26 9.02 9.4 20.206 9.4 33.49zm-22.56-6.137c.166-7.025-1.388-13.062-4.595-18.188-4.095-6.592-10.398-9.877-18.843-9.877-7.745 0-14.037 3.207-18.83 9.644-3.94 5.115-6.282 11.274-7.003 18.398l49.27.023zM529.954 168.078H517.56l-6.78-21.317h-23.582l-6.47 21.32h-12.062l23.37-72.586h14.426l23.492 72.585zm-21.217-30.262l-6.137-18.953c-.643-1.942-1.83-6.46-3.662-13.672h-.222c-.754 3.12-1.83 7.648-3.45 13.674l-6.026 18.953h19.497zm79.653-22.07l-19.818 52.332h-11.308l-19.176-52.333h12.495l8.945 27.675c1.51 4.628 2.796 9.044 3.76 13.24h.323c.868-3.763 2.155-8.18 3.764-13.24l8.833-27.675h12.185m42.188 52.333l-.864-6.026h-.322c-3.55 4.85-8.722 7.213-15.292 7.213-9.366 0-16.046-6.57-16.046-15.402 0-12.917 11.197-19.598 30.583-19.598v-.965c0-6.89-3.664-10.342-10.877-10.342-5.17 0-9.698 1.298-13.67 3.884l-2.365-7.646c4.85-3.02 10.874-4.528 17.987-4.528 13.672 0 20.574 7.213 20.574 21.65v19.276c0 5.282.222 9.377.755 12.495l-10.465-.013zm-1.62-26.067c-12.927 0-19.385 3.13-19.385 10.555 0 5.493 3.34 8.18 7.967 8.18 5.926 0 11.42-4.518 11.42-10.654v-8.08zm37.23-34.888c-3.872 0-6.89-3.018-6.89-7.002s3.118-6.89 7.113-6.89c3.984 0 7.213 2.906 7.102 6.89 0 4.206-3.007 7.002-7.324 7.002zm-5.592 8.623h11.63v52.333h-11.63v-52.333zM692.89 91.73h11.63v76.348h-11.63V91.73zm61.056 76.348l-.877-6.026h-.313c-3.55 4.85-8.722 7.213-15.29 7.213-9.367 0-16.047-6.57-16.047-15.402 0-12.917 11.197-19.598 30.584-19.598v-.965c0-6.89-3.662-10.342-10.875-10.342-5.173 0-9.7 1.298-13.674 3.884l-2.374-7.657c4.85-3.02 10.875-4.528 17.988-4.528 13.672 0 20.585 7.213 20.585 21.65v19.276c0 5.282.222 9.376.733 12.495h-10.442zm-1.62-26.067c-12.928 0-19.387 3.13-19.387 10.555 0 5.493 3.34 8.18 7.966 8.18 5.926 0 11.418-4.518 11.418-10.654v-8.08zm58.436 27.255c-7.424 0-12.906-3.13-16.468-9.266h-.222l-.666 8.077h-9.898c.31-4.195.422-8.944.422-14.104V91.73h11.65v31.67h.212c3.45-5.813 9.044-8.72 16.69-8.72 12.606 0 21.44 10.774 21.44 26.488 0 16.246-9.81 28.097-23.16 28.097zm-2.364-45.453c-6.69 0-12.817 5.815-12.817 13.893v9.155c0 7.213 5.506 13.14 12.608 13.14 8.71 0 13.905-7.103 13.905-18.41-.01-10.554-5.404-17.778-13.694-17.778zm42.734-32.082h11.62v76.348h-11.62V91.73zm74.916 52.978h-34.91c.232 9.91 6.78 15.502 16.467 15.502 5.182 0 9.92-.866 14.115-2.475l1.81 8.08c-4.95 2.152-10.765 3.228-17.545 3.228-16.38 0-26.067-10.342-26.067-26.377 0-16.046 9.92-28.11 24.768-28.11 13.34 0 21.76 9.91 21.76 24.88.035 2.042-.065 3.873-.398 5.272zm-10.653-8.29c0-8.078-4.106-13.782-11.54-13.782-6.68 0-11.94 5.815-12.718 13.782h24.258zm81.14 32.847c-15.29 0-25.2-11.42-25.2-26.92 0-16.158 10.12-27.677 26.077-27.677 15.06 0 25.2 10.875 25.2 26.82 0 16.358-10.452 27.777-26.077 27.777zm.444-46.097c-8.4 0-13.784 7.857-13.784 18.843 0 10.777 5.493 18.634 13.67 18.634 8.18 0 13.673-8.4 13.673-18.854 0-10.654-5.383-18.622-13.56-18.622zm88.153 44.91h-11.607v-30.05c0-9.256-3.562-13.894-10.564-13.894-6.892 0-11.64 5.926-11.64 12.817v31.13h-11.608v-37.376c0-4.627-.134-9.587-.444-14.97h10.23l.545 8.08h.333c3.096-5.594 9.465-9.156 16.578-9.156 10.964 0 18.177 8.4 18.177 22.072v31.348m76.092-43.61h-12.795v25.41c0 6.47 2.253 9.698 6.77 9.698 2.04 0 3.783-.22 5.17-.543l.322 8.833c-2.264.865-5.293 1.298-9.033 1.298-9.18 0-14.64-5.06-14.64-18.31v-26.388h-7.622v-8.722h7.622v-9.588l11.408-3.45v13.027h12.795v8.733m61.59 43.612h-11.64v-29.83c0-9.365-3.563-14.103-10.554-14.103-6.028 0-11.62 4.095-11.62 12.384v31.547h-11.64V91.73H1189v31.438h.222c3.65-5.703 8.944-8.51 15.725-8.51 11.085 0 17.866 8.61 17.866 22.293v31.13m59.424-23.372h-34.9c.222 9.91 6.77 15.502 16.468 15.502 5.193 0 9.92-.866 14.093-2.475l1.82 8.08c-4.938 2.152-10.764 3.228-17.556 3.228-16.368 0-26.055-10.342-26.055-26.377 0-16.046 9.91-28.11 24.757-28.11 13.35 0 21.76 9.91 21.76 24.88.045 2.042-.066 3.873-.387 5.272zm-10.664-8.29c0-8.078-4.084-13.782-11.52-13.782-6.68 0-11.95 5.815-12.716 13.782h24.236z" fill="#FFF"/></g></svg>