<svg id="Layer_1" data-name="Layer 1" xmlns="http://www.w3.org/2000/svg" viewBox="0 0 1479 502"><defs><style>.cls-1{fill-opacity:0.7;stroke-width:2px;}.cls-1,.cls-2{stroke:#fff;}.cls-2,.cls-3{fill:#fff;}.cls-2{stroke-miterlimit:10;stroke-width:1.74px;}.cls-4{fill:url(#linear-gradient);}.cls-5{fill:url(#linear-gradient-2);}.cls-6{fill:url(#linear-gradient-3);}.cls-7{fill:url(#linear-gradient-4);}</style><linearGradient id="linear-gradient" x1="253.02" y1="-23.54" x2="70.28" y2="159.2" gradientTransform="matrix(1 0 0 -1 -10.34 348.63)" gradientUnits="userSpaceOnUse"><stop offset="0" stop-color="#00a0ff"/><stop offset=".01" stop-color="#00a1ff"/><stop offset=".26" stop-color="#00beff"/><stop offset=".51" stop-color="#00d2ff"/><stop offset=".76" stop-color="#00dfff"/><stop offset="1" stop-color="#00e3ff"/></linearGradient><linearGradient id="linear-gradient-2" x1="384.07" y1="99.41" x2="120.6" y2="99.41" gradientTransform="matrix(1 0 0 -1 -10.34 348.63)" gradientUnits="userSpaceOnUse"><stop offset="0" stop-color="#ffe000"/><stop offset=".41" stop-color="#ffbd00"/><stop offset=".78" stop-color="orange"/><stop offset="1" stop-color="#ff9c00"/></linearGradient><linearGradient id="linear-gradient-3" x1="195.13" y1="33.55" x2="-52.68" y2="281.36" gradientTransform="matrix(1 0 0 -1 -10.34 348.63)" gradientUnits="userSpaceOnUse"><stop offset="0" stop-color="#ff3a44"/><stop offset="1" stop-color="#c31162"/></linearGradient><linearGradient id="linear-gradient-4" x1="4.28" y1="-25.61" x2="114.94" y2="85.05" gradientTransform="matrix(1 0 0 -1 -10.34 348.63)" gradientUnits="userSpaceOnUse"><stop offset="0" stop-color="#32a071"/><stop offset=".07" stop-color="#2da771"/><stop offset=".48" stop-color="#15cf74"/><stop offset=".8" stop-color="#06e775"/><stop offset="1" stop-color="#00f076"/></linearGradient></defs><title>download-on-the-google-play-store</title><rect class="cls-1" x="1" y="1" width="1477" height="500" rx="60" ry="60"/><g id="g12"><g id="g18"><path id="path20" class="cls-2" d="M521.91 143.9c0 9-2.73 16.22-8.1 21.6q-9.27 9.57-24.09 9.59a33.31 33.31 0 0 1-24.08-9.7 32.5 32.5 0 0 1-9.92-24.12 32.29 32.29 0 0 1 9.92-24.07 33.14 33.14 0 0 1 24.08-9.75 34.63 34.63 0 0 1 13.44 2.74 26.62 26.62 0 0 1 10.23 7.21l-5.7 5.69c-4.38-5.11-10.34-7.63-18-7.63a25.16 25.16 0 0 0-17.9 7.16q-7.51 7.2-7.52 18.65c0 7.63 2.51 13.9 7.52 18.7a25.39 25.39 0 0 0 17.9 7.16 25 25 0 0 0 18.31-7.21c3.19-3.17 5-7.54 5.48-13.12h-23.77V139h31.71a21.9 21.9 0 0 1 .49 4.9z"/></g><g id="g22"><path id="path24" class="cls-2" d="M572.21 116.87h-29.78v20.5h26.85v7.79h-26.85v20.5h29.78v7.94H534v-64.67h38.22v7.94z"/></g><g id="g26"><path id="path28" class="cls-2" d="M607.71 173.6h-8.43v-56.73H581v-7.94h45v7.94h-18.29v56.73z"/></g><g id="g30"><path id="path32" class="cls-2" d="M658.55 173.6v-64.67H667v64.67h-8.42z"/></g><g id="g34"><path id="path36" class="cls-2" d="M704.28 173.6h-8.36v-56.73h-18.34v-7.94h45v7.94h-18.3v56.73z"/></g><g id="g38"><path id="path40" class="cls-2" d="M807.78 165.28a32.35 32.35 0 0 1-24 9.8q-14.39 0-24-9.8a32.88 32.88 0 0 1-9.65-24 32.88 32.88 0 0 1 9.65-24q9.68-9.81 24-9.8a32.15 32.15 0 0 1 23.93 9.86 32.76 32.76 0 0 1 9.7 24 32.88 32.88 0 0 1-9.63 23.94zM766 159.86a25.38 25.38 0 0 0 35.55 0c4.84-4.84 7.3-11.06 7.3-18.6s-2.46-13.75-7.3-18.6a25.38 25.38 0 0 0-35.56 0c-4.84 4.84-7.3 11.06-7.3 18.6s2.45 13.74 7.31 18.6z"/></g><g id="g42"><path id="path44" class="cls-2" d="M829.25 173.6v-64.67h10.23l31.82 50.3h.37l-.37-12.43v-37.87h8.42v64.67h-8.79l-33.32-52.78h-.37l.37 12.49v40.29h-8.36z"/></g><path id="path46" class="cls-3" d="M748 268.05c-25.64 0-46.58 19.28-46.58 45.89 0 26.39 20.94 45.88 46.58 45.88s46.63-19.49 46.63-45.88c.04-26.61-20.91-45.89-46.63-45.89zm0 73.69c-14.07 0-26.17-11.48-26.17-27.81 0-16.55 12.1-27.82 26.17-27.82s26.22 11.27 26.22 27.82c.04 16.34-12.12 27.82-26.22 27.82zm-101.6-73.69c-25.69 0-46.58 19.28-46.58 45.89 0 26.39 20.89 45.88 46.58 45.88s46.6-19.49 46.6-45.88c0-26.61-20.92-45.89-46.6-45.89zm0 73.69c-14.08 0-26.22-11.48-26.22-27.81 0-16.55 12.14-27.82 26.22-27.82s26.17 11.27 26.17 27.82c0 16.34-12.1 27.82-26.17 27.82zm-120.93-59.62v19.5h47.11c-1.38 10.9-5.06 18.91-10.71 24.49-6.88 6.74-17.59 14.23-36.4 14.23a51.78 51.78 0 0 1 0-103.56 50.28 50.28 0 0 1 35.5 13.9l13.9-13.74c-11.77-11.11-27.44-19.65-49.4-19.65-39.76 0-73.17 32-73.17 71.27s33.41 71.27 73.17 71.27c21.49 0 37.63-7 50.32-20 13-12.85 17.05-30.92 17.05-45.51a64.49 64.49 0 0 0-1.06-12.18h-66.31zM1020 297.23c-3.83-10.26-15.66-29.18-39.76-29.18-23.88 0-43.75 18.6-43.75 45.89 0 25.7 19.67 45.88 46 45.88a46.15 46.15 0 0 0 38.69-20.34l-15.83-10.42c-5.28 7.63-12.47 12.69-22.87 12.69s-17.74-4.68-22.48-13.9l62.09-25.39zm-63.31 15.28c-.53-17.69 13.9-26.75 24.24-26.75 8.1 0 15 4 17.27 9.74zM906.22 357h20.41V222.18h-20.41V357zm-33.43-78.75h-.68c-4.58-5.37-13.33-10.22-24.41-10.22-23.25 0-44.51 20.17-44.51 46s21.26 45.73 44.51 45.73c11.08 0 19.82-4.89 24.41-10.42h.68V356c0 17.54-9.48 27-24.78 27-12.47 0-20.21-8.9-23.4-16.38l-17.75 7.32A44.29 44.29 0 0 0 848 401c23.93 0 44.12-13.92 44.12-47.78v-82.38h-19.33v7.43zm-23.34 63.47c-14.07 0-25.84-11.64-25.84-27.66s11.77-28 25.84-28c13.86 0 24.79 11.8 24.79 28s-10.93 27.69-24.79 27.69zm266.1-119.57h-48.82V357h20.36v-51.07h28.46c22.61 0 44.78-16.17 44.78-41.88s-22.23-41.87-44.78-41.87zm.53 65h-29v-46.22h29a23.13 23.13 0 1 1 0 46.24zm125.83-19.38c-14.71 0-30 6.42-36.29 20.65l18.06 7.48c3.89-7.48 11-9.91 18.6-9.91 10.56 0 21.27 6.27 21.43 17.34v1.42a45.14 45.14 0 0 0-21.27-5.22c-19.46 0-39.28 10.59-39.28 30.34 0 18.07 15.94 29.71 33.85 29.71 13.7 0 21.26-6.11 26-13.22h.7v10.42h19.66v-51.7c.01-23.91-18.06-37.28-41.46-37.28zm-2.46 73.9c-6.66 0-15.94-3.26-15.94-11.42 0-10.44 11.57-14.44 21.58-14.44 9 0 13.17 2 18.61 4.53a24.61 24.61 0 0 1-24.24 21.35zM1355 270.75l-23.4 58.46h-.7l-24.19-58.46h-22l36.35 81.69-20.74 45.46h21.27l56-127.15H1355zM1171.51 357h20.41V222.18h-20.41V357z"/><g id="g48"><path id="path64" class="cls-4" d="M118.25 114.72c-3.21 3.32-5.06 8.48-5.06 15.17v238.57c0 6.69 1.86 11.85 5.06 15.17l.79.73L254.3 250.72v-3.16L119 113.93z"/></g><g id="g66"><path id="path78" class="cls-5" d="M299.34 295.29l-45-44.57v-3.16L299.39 203l1 .58 53.4 30c15.24 8.52 15.24 22.55 0 31.12l-53.4 30z"/></g><g id="g80"><path id="path88" class="cls-6" d="M300.4 294.71l-46.1-45.57-136.05 134.49c5.06 5.26 13.32 5.89 22.7.63l159.45-89.55"/></g><g id="g90"><path id="path104" class="cls-7" d="M300.4 203.58L141 114c-9.39-5.21-17.64-4.57-22.7.69l136 134.46z"/></g></g></svg>