<?xml version="1.0" encoding="UTF-8"?>
<svg width="242px" height="69px" viewBox="0 0 242 69" version="1.1" xmlns="http://www.w3.org/2000/svg" xmlns:xlink="http://www.w3.org/1999/xlink">
    <!-- Generator: Sketch 42 (36781) - http://www.bohemiancoding.com/sketch -->
    <title>btnPlayStoreGreen</title>
    <desc>Created with Sketch.</desc>
    <defs>
        <rect id="path-1" x="0" y="0" width="242" height="69" rx="6"></rect>
        <mask id="mask-2" maskContentUnits="userSpaceOnUse" maskUnits="objectBoundingBox" x="0" y="0" width="242" height="69" fill="white">
            <use xlink:href="#path-1"></use>
        </mask>
    </defs>
    <g id="Mockups" stroke="none" stroke-width="1" fill="none" fill-rule="evenodd">
        <g id="Home---Desktop" transform="translate(-1243.000000, -514.000000)">
            <g id="box1">
                <g id="right" transform="translate(981.000000, 514.000000)">
                    <g id="downloadbuttons">
                        <g id="btnPlayStoreGreen" transform="translate(262.000000, 0.000000)">
                            <use id="Rectangle-2-Copy" stroke="#50E3C2" mask="url(#mask-2)" stroke-width="6" fill="#4FE3C0" xlink:href="#path-1"></use>
                            <g id="Group-10" transform="translate(15.000000, 16.000000)" fill="#FFFFFF">
                                <path d="M1.62322275,1.058 C1.14074475,1.556 0.86268111,2.33 0.86268111,3.3335 L0.86268111,39.119 C0.86268111,40.1225 1.1422478,40.8965 1.62322275,41.3945 L1.74196344,41.504 L22.0721733,21.458 L22.0721733,20.984 L1.73595125,0.9395 L1.62322275,1.058 Z" id="path64" opacity="0.300000012"></path>
                                <path d="M28.8418957,28.1435 L22.0781855,21.458 L22.0781855,20.984 L28.849411,14.3 L28.9997156,14.387 L37.0259851,18.887 C39.3166283,20.165 39.3166283,22.2695 37.0259851,23.555 L28.9997156,28.055 L28.8418957,28.1435 Z" id="path78" opacity="0.5"></path>
                                <path d="M29.0012187,28.0565 L22.0721733,21.221 L1.62322275,41.3945 C2.38376439,42.1835 3.62528097,42.278 5.03513879,41.489 L29.0012187,28.0565" id="path88" opacity="0.699999988"></path>
                                <path d="M29.0012187,14.387 L5.04265403,0.95 C3.63129316,0.1685 2.39127962,0.2645 1.63073798,1.0535 L22.0721733,21.2225 L29.0012187,14.387 Z" id="path104"></path>
                            </g>
                            <path d="M76.86,43.24 C79.42,43.24 81.48,42.22 82.92,40.98 L82.92,34.9 L76.74,34.9 L76.74,37.06 L80.54,37.06 L80.54,39.88 C79.64,40.56 78.36,41.02 76.94,41.02 C73.92,41.02 71.9,38.76 71.9,35.72 L71.9,35.68 C71.9,32.84 73.96,30.46 76.72,30.46 C78.58,30.46 79.7,31.06 80.84,32.02 L82.4,30.16 C80.9,28.9 79.34,28.2 76.8,28.2 C72.42,28.2 69.32,31.66 69.32,35.72 L69.32,35.76 C69.32,40 72.3,43.24 76.86,43.24 Z M93.36,43.24 C88.9,43.24 85.78,39.84 85.78,35.76 L85.78,35.72 C85.78,31.64 88.94,28.2 93.4,28.2 C97.86,28.2 100.98,31.6 100.98,35.68 L100.98,35.72 C100.98,39.8 97.82,43.24 93.36,43.24 Z M93.4,40.98 C96.34,40.98 98.4,38.64 98.4,35.76 L98.4,35.72 C98.4,32.84 96.3,30.46 93.36,30.46 C90.42,30.46 88.36,32.8 88.36,35.68 L88.36,35.72 C88.36,38.6 90.46,40.98 93.4,40.98 Z M111.2,43.24 C106.74,43.24 103.62,39.84 103.62,35.76 L103.62,35.72 C103.62,31.64 106.78,28.2 111.24,28.2 C115.7,28.2 118.82,31.6 118.82,35.68 L118.82,35.72 C118.82,39.8 115.66,43.24 111.2,43.24 Z M111.24,40.98 C114.18,40.98 116.24,38.64 116.24,35.76 L116.24,35.72 C116.24,32.84 114.14,30.46 111.2,30.46 C108.26,30.46 106.2,32.8 106.2,35.68 L106.2,35.72 C106.2,38.6 108.3,40.98 111.24,40.98 Z M129,43.24 C131.56,43.24 133.62,42.22 135.06,40.98 L135.06,34.9 L128.88,34.9 L128.88,37.06 L132.68,37.06 L132.68,39.88 C131.78,40.56 130.5,41.02 129.08,41.02 C126.06,41.02 124.04,38.76 124.04,35.72 L124.04,35.68 C124.04,32.84 126.1,30.46 128.86,30.46 C130.72,30.46 131.84,31.06 132.98,32.02 L134.54,30.16 C133.04,28.9 131.48,28.2 128.94,28.2 C124.56,28.2 121.46,31.66 121.46,35.72 L121.46,35.76 C121.46,40 124.44,43.24 129,43.24 Z M138.58,43 L148.74,43 L148.74,40.76 L141.04,40.76 L141.04,28.44 L138.58,28.44 L138.58,43 Z M151.58,43 L162.44,43 L162.44,40.8 L154.02,40.8 L154.02,36.76 L161.4,36.76 L161.4,34.56 L154.02,34.56 L154.02,30.64 L162.34,30.64 L162.34,28.44 L151.58,28.44 L151.58,43 Z M172.08,43 L172.08,28.44 L177.78,28.44 C181.16,28.44 183.3,30.36 183.3,33.26 L183.3,33.32 C183.3,36.58 180.68,38.26 177.5,38.26 L174.54,38.26 L174.54,43 L172.08,43 Z M174.54,36.06 L177.58,36.06 C179.56,36.06 180.82,34.94 180.82,33.38 L180.82,33.34 C180.82,31.6 179.54,30.66 177.58,30.66 L174.54,30.66 L174.54,36.06 Z M186.14,43 L196.3,43 L196.3,40.76 L188.6,40.76 L188.6,28.44 L186.14,28.44 L186.14,43 Z M202.82,37.26 L208.02,37.26 L205.42,31.26 L202.82,37.26 Z M197.88,43 L204.32,28.34 L206.6,28.34 L213.02,43 L210.44,43 L208.92,39.46 L201.92,39.46 L200.4,43 L197.88,43 Z M217.78,43 L217.78,37.26 L211.96,28.44 L214.86,28.44 L219.02,34.98 L223.24,28.44 L226.06,28.44 L220.24,37.2 L220.24,43 L217.78,43 Z" id="Google-Play" fill="#FFFFFF"></path>
                        </g>
                    </g>
                </g>
            </g>
        </g>
    </g>
</svg>