<?xml version="1.0" encoding="UTF-8"?>
<svg width="102px" height="23px" viewBox="0 0 102 23" version="1.1" xmlns="http://www.w3.org/2000/svg" xmlns:xlink="http://www.w3.org/1999/xlink">
    <!-- Generator: Sketch 42 (36781) - http://www.bohemiancoding.com/sketch -->
    <title>logoGray</title>
    <desc>Created with Sketch.</desc>
    <defs></defs>
    <g id="Mockups" stroke="none" stroke-width="1" fill="none" fill-rule="evenodd">
        <g id="Home---iPhone" transform="translate(-33.000000, -33.000000)" fill="#9099A7">
            <g id="MobileNav-Overlay" transform="translate(0.000000, -1.000000)">
                <g id="Nav" transform="translate(33.000000, 34.000000)">
                    <path d="M87.1033252,14.476087 L87.1033252,14.7893749 C87.1033252,17.5045365 88.5111431,19.5247032 91.3267789,20.8498749 C91.9945176,21.063978 92.6894241,21.1804028 93.3901456,21.1955719 L93.7662801,21.1955719 C96.3956398,21.1955719 98.3801973,19.7767739 99.7199527,16.9391779 C99.9088492,16.2774372 100.020648,15.5958808 100.0531,14.9082082 L100.0531,14.5409052 C100.0531,11.8329456 98.620207,9.80917794 95.7544199,8.46960218 C95.0888742,8.27939751 94.403719,8.16702309 93.7125466,8.13470824 L93.4546258,8.13470824 C90.8252662,8.13470824 88.8442909,9.52829915 87.5116999,12.315481 C87.2588356,13.0083551 87.1208751,13.7382688 87.1033252,14.476087 L87.1033252,14.476087 Z M86.2650825,2.64236066e-05 L86.3403094,2.64236066e-05 C86.7207603,-0.00314617769 87.0436748,0.279725671 87.0925785,0.659011272 L87.0925785,9.73355673 C89.2419188,7.61616279 91.3912591,6.55746582 93.5405994,6.55746582 C97.2521679,6.5622501 100.481995,9.11105075 101.367802,12.734261 C102.253609,16.3574712 100.566999,20.1208817 97.2804515,21.8545567 C96.1776302,22.446228 94.9515876,22.7682243 93.7017999,22.7944204 L93.2611852,22.7944204 C90.8934756,22.6955074 88.6837503,21.5730382 87.2000455,19.7155567 C86.0624185,18.1222661 85.4737292,16.1989978 85.5235601,14.2384204 L85.5235601,0.659011272 C85.5724638,0.279725671 85.8953783,-0.00314617769 86.2758292,2.64236066e-05 L86.2650825,2.64236066e-05 Z M69.7474024,14.6273295 L69.7474024,14.9082082 C69.725153,17.2811432 71.0636668,19.4550145 73.1863468,20.4933749 C74.0155379,20.9286819 74.9375688,21.1548367 75.8730222,21.1523598 L76.1954232,21.1523598 C78.6671646,21.1523598 80.558584,19.8631981 81.8696816,17.2848749 C82.1667876,16.5276625 82.323408,15.7221489 82.3317898,14.9082082 L82.3317898,14.6273295 C82.3227801,12.5912394 81.3026126,10.6942398 79.6128743,9.57151127 C78.5356363,8.83963821 77.2588701,8.46215046 75.9589958,8.49120824 C73.265156,8.49120824 71.2949274,9.90640521 70.04831,12.7367992 C69.8569901,13.3488907 69.7556179,13.9857877 69.7474024,14.6273295 L69.7474024,14.6273295 Z M76.0557161,6.82754158 C79.699987,6.83740231 82.8699163,9.3392539 83.7442135,12.8956516 C84.6185108,16.4520492 82.9727807,20.1502153 79.7525814,21.8653598 C78.6656614,22.4454984 77.4580727,22.7600809 76.2276633,22.7836173 L75.6903283,22.7836173 C73.3663196,22.6909354 71.197271,21.5869264 69.7474024,19.7587688 C68.6849413,18.327735 68.0983101,16.5964186 68.0709169,14.810981 C68.0930391,12.2201057 69.3679059,9.8020887 71.488368,8.32916279 C72.8110516,7.40382945 74.379867,6.8994783 75.9912359,6.88155673 L76.0557161,6.82754158 Z M17.4646997,14.6273295 L17.4646997,14.9082082 C17.4424504,17.2811432 18.7809641,19.4550145 20.9036442,20.4933749 C21.7326822,20.9290901 22.654815,21.1552698 23.5903196,21.1523598 L23.9449607,21.1523598 C26.4167021,21.1523598 28.3081215,19.8631981 29.6192191,17.2848749 C29.9153965,16.52739 30.0719831,15.7220499 30.0813273,14.9082082 L30.0813273,14.6273295 C30.0723176,12.5912394 29.0521501,10.6942398 27.3624118,9.57151127 C26.2851737,8.83963821 25.0084076,8.46215046 23.7085333,8.49120824 C21.0146934,8.49120824 19.0444648,9.90640521 17.7978475,12.7367992 C17.5898068,13.3606464 17.4774703,14.0126993 17.4646997,14.6705416 L17.4646997,14.6273295 Z M23.7730135,6.82754158 C27.4172844,6.83740231 30.5872137,9.3392539 31.4615109,12.8956516 C32.3358082,16.4520492 30.6900781,20.1502153 27.4698788,21.8653598 C26.3831062,22.4458795 25.1754253,22.760486 23.9449607,22.7836173 L23.4613592,22.7836173 C21.1393971,22.6851869 18.9745631,21.5773846 17.5291799,19.7479658 C16.4667189,18.316932 15.8800877,16.5856156 15.8526945,14.8001779 C15.8766249,12.2097632 17.1510778,9.79253139 19.2701456,8.31835976 C20.5928292,7.39302642 22.1616445,6.88867527 23.7730135,6.8707537 L23.7730135,6.82754158 Z M27.5236123,15.4699658 C27.5695151,15.1485416 27.8620192,14.9225501 28.1828131,14.9606608 C28.5036069,14.9987715 28.735647,15.2870795 28.7057495,15.6104052 C28.5458806,17.2214328 27.5594026,18.6310491 26.1050477,19.3266476 C24.6403558,20.029911 22.9379113,20.029911 21.4732194,19.3266476 C20.0119485,18.6351268 19.0172053,17.2253511 18.8510242,15.6104052 C18.8340835,15.2975478 19.0617274,15.0252314 19.3712208,14.9881258 C19.6807142,14.9510203 19.965684,15.1618789 20.0224147,15.4699658 C20.1433807,16.6794087 20.885466,17.7368897 21.9783143,18.2571476 C23.1182696,18.7970459 24.4385041,18.7970459 25.5784593,18.2571476 C26.6685634,17.7356985 27.4068387,16.6778344 27.5236123,15.4699658 L27.5236123,15.4699658 Z M51.8756378,6.75192036 C52.2600455,6.74721978 52.5956766,7.01263349 52.6816404,7.38929915 L52.6816404,9.66873854 C54.8309807,7.72419309 56.9015119,6.75192036 58.8932339,6.75192036 C61.1396861,6.78048145 63.2638744,7.78510723 64.7179461,9.50669309 C65.864217,10.8538587 66.5032387,12.5630248 66.5233919,14.3356476 L66.5233919,22.1678446 C66.449885,22.5416881 66.117767,22.8069457 65.7388827,22.7944204 C65.3178948,22.7947779 64.9716742,22.4610455 64.9543735,22.0382082 L64.9543735,15.1350719 C64.9543735,11.8581527 63.52148,9.69754663 60.6556929,8.6532537 C60.0789823,8.50898979 59.4874977,8.43285393 58.8932339,8.42639006 L58.71054,8.42639006 C56.3319367,8.42639006 54.4942507,9.65793551 53.1974821,12.1210264 C52.7837334,13.2612843 52.6045856,14.4741138 52.6708937,15.6860264 L52.6708937,22.1678446 C52.6366786,22.572772 52.2902148,22.8781132 51.8863845,22.8592385 C51.4505965,22.8194488 51.1209557,22.4454757 51.1341154,22.0057992 L51.1341154,7.77820824 C51.2093423,7.09761733 51.4672632,6.75192036 51.9078779,6.75192036 L51.8756378,6.75192036 Z M34.8206226,14.476087 L34.8206226,14.7893749 C34.8206226,17.5045365 36.2284405,19.5247032 39.0440763,20.8498749 C39.71185,21.0638321 40.4067354,21.1802534 41.107443,21.1955719 L41.4835775,21.1955719 C44.1129371,21.1955719 46.0974947,19.7767739 47.4372501,16.9391779 C47.6251179,16.2772048 47.7368965,15.5957688 47.7703979,14.9082082 L47.7703979,14.5409052 C47.7703979,11.8329456 46.3375043,9.80917794 43.4717173,8.46960218 C42.8061299,8.27958517 42.1209965,8.16721431 41.429844,8.13470824 L41.1719232,8.13470824 C38.5425635,8.13470824 36.5615882,9.52829915 35.2289973,12.315481 C34.9763208,13.0084073 34.8383663,13.7382895 34.8206226,14.476087 L34.8206226,14.476087 Z M33.9931266,2.64236066e-05 L34.0683535,2.64236066e-05 C34.4488044,-0.00314617769 34.7717189,0.279725671 34.8206226,0.659011272 L34.8206226,9.73355673 C36.9699629,7.61616279 39.1193032,6.55746582 41.2686435,6.55746582 C44.9761129,6.56174498 48.2038233,9.10460346 49.0940375,12.7224768 C49.9842518,16.34035 48.3079692,20.1025683 45.029989,21.8437537 C43.9273161,22.4358062 42.7011812,22.7578268 41.4513374,22.7836173 L40.9784825,22.7836173 C38.6107729,22.6847044 36.4010477,21.5622352 34.9173429,19.7047537 C33.7675436,18.1158609 33.167348,16.1919984 33.2086174,14.2276173 L33.2086174,0.659011272 C33.2575211,0.279725671 33.5804356,-0.00314617769 33.9608865,2.64236066e-05 L33.9931266,2.64236066e-05 Z M0.613871837,0.0324355145 L0.818059164,0.0324355145 C1.1789686,0.00939306129 1.50088716,0.259031898 1.57032827,0.615799151 L1.57032827,9.117784 C3.02989634,7.61935388 4.98167674,6.7055407 7.06189272,6.54666279 C9.661482,6.54892861 12.0522112,7.97845409 13.2949796,10.2737082 C13.8403791,11.2097038 14.1433775,12.2683276 14.1762091,13.3525719 L14.1762091,22.0706173 C14.1474772,22.4842744 13.7927226,22.7975165 13.3809532,22.7728143 C12.974686,22.7471069 12.6492705,22.4245931 12.6179374,22.0166022 L12.6179374,13.7198749 C12.6179374,11.2927941 11.37132,9.54270319 8.87808526,8.46960218 C8.29498609,8.29863699 7.69078113,8.21135001 7.08338612,8.21032945 C4.59731585,8.21032945 2.85276798,9.53190016 1.84974251,12.1750416 C1.63128604,13.0688512 1.53368689,13.9881849 1.55958157,14.9082082 L1.55958157,22.0706173 C1.53084972,22.4842744 1.1760951,22.7975165 0.764325657,22.7728143 C0.358058436,22.7471069 0.0326429746,22.4245931 0.00130985321,22.0166022 L0.00130985321,0.864268848 C-0.0212836034,0.471962725 0.250756582,0.124336346 0.63536524,0.0540415751 L0.613871837,0.0324355145 Z" id="logoGray"></path>
                </g>
            </g>
        </g>
    </g>
</svg>