<?xml version="1.0" encoding="UTF-8"?>
<svg width="75px" height="75px" viewBox="0 0 75 75" version="1.1" xmlns="http://www.w3.org/2000/svg" xmlns:xlink="http://www.w3.org/1999/xlink">
    <!-- Generator: Sketch 42 (36781) - http://www.bohemiancoding.com/sketch -->
    <title>hobnobLogoGradient</title>
    <desc>Created with Sketch.</desc>
    <defs>
        <linearGradient x1="30.7090203%" y1="0%" x2="68.9709707%" y2="92.2000161%" id="linearGradient-1">
            <stop stop-color="#99E09C" offset="0%"></stop>
            <stop stop-color="#55EFCB" offset="100%"></stop>
        </linearGradient>
    </defs>
    <g id="Mockups" stroke="none" stroke-width="1" fill="none" fill-rule="evenodd">
        <g id="About---Company" transform="translate(-923.000000, -775.000000)" fill="url(#linearGradient-1)">
            <path d="M977.605,815.085 C977.792,813.557 979.174,812.47 980.702,812.656 C982.22,812.844 983.306,814.236 983.12,815.756 C982.059,824.281 977.181,830.046 970.936,833.069 C967.593,834.683 963.843,835.497 960.102,835.497 C956.36,835.497 952.61,834.683 949.251,833.069 C942.989,830.046 938.085,824.273 937.007,815.756 C936.821,814.236 937.907,812.86 939.417,812.674 C940.936,812.487 942.318,813.565 942.505,815.085 C943.311,821.479 946.985,825.81 951.669,828.067 C954.273,829.324 957.183,829.953 960.102,829.953 C963.012,829.953 965.93,829.324 968.527,828.067 C973.168,825.817 976.807,821.496 977.605,815.085 M960.059,775 C969.613,775 978.25,778.643 986.021,785.894 C993.428,793.672 997.119,802.451 997.119,812.164 C997.119,826.098 990.518,837.051 977.359,845.033 C971.683,847.895 966.185,849.329 960.874,849.329 L958.591,849.329 C948.673,849.329 939.434,844.616 930.856,835.217 C925.621,827.779 923,820.104 923,812.164 C923,800.091 928.336,789.952 938.993,781.759 C945.797,777.25 952.813,775 960.059,775 M930.542,811.324 L930.542,812.717 C930.542,823.924 935.904,832.594 946.637,838.724 C950.582,840.771 954.774,841.789 959.219,841.789 L960.899,841.789 C972.463,841.789 981.313,835.794 987.438,823.797 C988.872,819.993 989.577,816.308 989.577,812.717 L989.577,811.324 C989.577,801.925 985.342,794.096 976.858,787.778 C971.835,784.297 966.134,782.539 959.746,782.539 C947.129,782.539 937.89,789.146 932.078,802.315 C931.06,805.593 930.542,808.606 930.542,811.324" id="hobnobLogoGradient"></path>
        </g>
    </g>
</svg>