<?xml version="1.0" encoding="UTF-8"?>
<svg width="136px" height="30px" viewBox="0 0 136 30" version="1.1" xmlns="http://www.w3.org/2000/svg" xmlns:xlink="http://www.w3.org/1999/xlink">
    <!-- Generator: Sketch 41.2 (35397) - http://www.bohemiancoding.com/sketch -->
    <title>logo</title>
    <desc>Created with Sketch.</desc>
    <defs></defs>
    <g id="Mockups" stroke="none" stroke-width="1" fill="none" fill-rule="evenodd">
        <g id="Home---iPad" transform="translate(-66.000000, -30.000000)" fill="#FFFFFF">
            <g id="Nav" transform="translate(66.000000, 30.000000)">
                <path d="M116.137767,18.8818526 L116.137767,19.290489 C116.137767,22.8320042 118.014857,25.4670042 121.769039,27.195489 C122.659357,27.4747539 123.585899,27.6266123 124.520194,27.6463981 L125.021707,27.6463981 C128.52752,27.6463981 131.173596,25.795792 132.959937,22.0945799 C133.211799,21.2314398 133.360863,20.3424532 133.404134,19.445489 L133.404134,18.9663981 C133.404134,15.4342769 131.493609,12.7945799 127.67256,11.0473072 C126.785166,10.7992141 125.871625,10.6526388 124.950062,10.610489 L124.606168,10.610489 C121.100355,10.610489 118.459054,12.4282163 116.682267,16.0636708 C116.345114,16.9674197 116.161167,17.919481 116.137767,18.8818526 L116.137767,18.8818526 Z M115.02011,3.44655739e-05 L115.120413,3.44655739e-05 C115.62768,-0.00410371003 116.058233,0.364859571 116.123438,0.85957992 L116.123438,12.6959436 C118.989225,9.93412537 121.855012,8.55321628 124.720799,8.55321628 C129.669557,8.55945665 133.975993,11.8839792 135.157069,16.6099056 C136.338145,21.3358319 134.089332,26.2446283 129.707269,28.5059436 C128.23684,29.2776886 126.602117,29.6976839 124.935733,29.7318526 L124.348247,29.7318526 C121.191301,29.6028358 118.245,28.1387455 116.266727,25.7159436 C114.749891,23.6377384 113.964972,21.1291275 114.031413,18.5718526 L114.031413,0.85957992 C114.096618,0.364859571 114.527171,-0.00410371003 115.034439,3.44655739e-05 L115.02011,3.44655739e-05 Z M92.9965365,19.0791254 L92.9965365,19.445489 C92.9668707,22.5406216 94.7515557,25.3761058 97.5817958,26.730489 C98.6873839,27.2982807 99.9167584,27.5932652 101.16403,27.5900345 L101.593898,27.5900345 C104.889553,27.5900345 107.411445,25.9085193 109.159575,22.545489 C109.555717,21.5578206 109.764544,20.5071507 109.77572,19.445489 L109.77572,19.0791254 C109.763707,16.4233557 108.403484,13.9490085 106.150499,12.4845799 C104.714182,11.5299629 103.011827,11.0375876 101.278661,11.075489 C97.6868746,11.075489 95.0599032,12.9213981 93.3977467,16.6132163 C93.1426534,17.4115965 93.0074905,18.2423318 92.9965365,19.0791254 L92.9965365,19.0791254 Z M101.407621,8.90548901 C106.266649,8.91835084 110.493222,12.1816355 111.658951,16.8204151 C112.824681,21.4591946 110.630374,26.2828896 106.336775,28.5200345 C104.887549,29.2767371 103.27743,29.6870621 101.636884,29.7177617 L100.920438,29.7177617 C97.8217595,29.5968722 94.9296947,28.1568605 92.9965365,25.7723072 C91.5799217,23.9057413 90.7977468,21.6475025 90.7612226,19.3186708 C90.7907188,15.9392683 92.4905411,12.7853331 95.317824,10.8641254 C97.0814021,9.65716885 99.1731559,8.99931952 101.321648,8.97594356 L101.407621,8.90548901 Z M23.2862663,19.0791254 L23.2862663,19.445489 C23.2566005,22.5406216 25.0412855,25.3761058 27.8715256,26.730489 C28.9769096,27.2988131 30.20642,27.5938302 31.4537594,27.5900345 L31.9266143,27.5900345 C35.2222694,27.5900345 37.744162,25.9085193 39.4922921,22.545489 C39.8871953,21.5574652 40.0959775,20.5070216 40.1084363,19.445489 L40.1084363,19.0791254 C40.0964235,16.4233557 38.7362002,13.9490085 36.4832157,12.4845799 C35.0468983,11.5299629 33.3445434,11.0375876 31.6113777,11.075489 C28.0195913,11.075489 25.3926198,12.9213981 23.7304633,16.6132163 C23.4530758,17.4269301 23.3032937,18.2774339 23.2862663,19.135489 L23.2862663,19.0791254 Z M31.6973513,8.90548901 C36.5563792,8.91835084 40.7829515,12.1816355 41.9486812,16.8204151 C43.1144109,21.4591946 40.9201041,26.2828896 36.6265051,28.5200345 C35.177475,29.2772341 33.5672337,29.6875904 31.9266143,29.7177617 L31.2818122,29.7177617 C28.1858629,29.5893742 25.2994175,28.1444147 23.3722399,25.7582163 C21.9556252,23.8916504 21.1734502,21.6334116 21.136926,19.3045799 C21.1688333,15.9257781 22.8681037,12.772867 25.6935274,10.8500345 C27.4571056,9.64307794 29.5488594,8.98522861 31.6973513,8.96185265 L31.6973513,8.90548901 Z M36.6981497,20.1782163 C36.7593535,19.7589673 37.1493589,19.4641957 37.5770841,19.5139054 C38.0048093,19.563615 38.314196,19.9396689 38.2743326,20.3613981 C38.0611742,22.4627385 36.7458701,24.3013684 34.8067303,25.2086708 C32.8538077,26.1259709 30.5838817,26.1259709 28.6309592,25.2086708 C26.682598,24.3066872 25.3562737,22.4678493 25.134699,20.3613981 C25.1121113,19.9533232 25.4156365,19.5981279 25.8282944,19.5497293 C26.2409523,19.5013308 26.620912,19.7763638 26.6965529,20.1782163 C26.8578409,21.7557504 27.8472881,23.1350735 29.3044191,23.8136708 C30.8243595,24.517886 32.5846721,24.517886 34.1046125,23.8136708 C35.5580845,23.1335197 36.5424515,21.7536971 36.6981497,20.1782163 L36.6981497,20.1782163 Z M69.1675171,8.80685265 C69.6800607,8.80072145 70.1275688,9.14691324 70.2421872,9.63821628 L70.2421872,12.6113981 C73.1079743,10.0750345 75.8686825,8.80685265 78.5243118,8.80685265 C81.5195814,8.84410623 84.3518325,10.1544877 86.2905948,12.4000345 C87.818956,14.157207 88.6709849,16.386554 88.6978559,18.6986708 L88.6978559,28.9145799 C88.5998466,29.4022018 88.1570226,29.7481901 87.6518436,29.7318526 C87.0905263,29.732319 86.628899,29.2970158 86.6058313,28.745489 L86.6058313,19.7413981 C86.6058313,15.4671557 84.6953066,12.6489739 80.8742572,11.2868526 C80.1053097,11.0986823 79.3166635,10.9993747 78.5243118,10.9909436 L78.2807199,10.9909436 C75.1092489,10.9909436 72.659001,12.5973072 70.9299761,15.8100345 C70.3783112,17.2973273 70.1394475,18.8792788 70.2278583,20.4600345 L70.2278583,28.9145799 C70.1822381,29.442746 69.7202863,29.8410172 69.181846,29.8163981 C68.6007954,29.7644985 68.1612743,29.2767074 68.1788206,28.7032163 L68.1788206,10.145489 C68.2791231,9.25776174 68.6230176,8.80685265 69.2105039,8.80685265 L69.1675171,8.80685265 Z M46.4274968,18.8818526 L46.4274968,19.290489 C46.4274968,22.8320042 48.3045873,25.4670042 52.0587684,27.195489 C52.9491334,27.4745637 53.8756472,27.6264175 54.8099239,27.6463981 L55.3114367,27.6463981 C58.8172495,27.6463981 61.4633262,25.795792 63.2496668,22.0945799 C63.5001572,21.2311367 63.6491953,20.3423072 63.6938638,19.445489 L63.6938638,18.9663981 C63.6938638,15.4342769 61.7833391,12.7945799 57.9622897,11.0473072 C57.0748399,10.7994589 56.1613286,10.6528882 55.239792,10.610489 L54.8958976,10.610489 C51.3900847,10.610489 48.7487843,12.4282163 46.9719963,16.0636708 C46.6350944,16.9674878 46.451155,17.9195081 46.4274968,18.8818526 L46.4274968,18.8818526 Z M45.3241688,3.44655739e-05 L45.4244713,3.44655739e-05 C45.9317392,-0.00410371003 46.3622919,0.364859571 46.4274968,0.85957992 L46.4274968,12.6959436 C49.2932839,9.93412537 52.1590709,8.55321628 55.024858,8.55321628 C59.9681506,8.5587978 64.2717644,11.8755697 65.4587167,16.5945349 C66.6456691,21.3135001 64.4106257,26.2207412 60.0399853,28.4918526 C58.5697548,29.264095 56.9349082,29.684122 55.2684499,29.7177617 L54.6379767,29.7177617 C51.4810306,29.5887449 48.5347302,28.1246545 46.5564572,25.7018526 C45.0233915,23.6293838 44.2231307,21.1199979 44.2781565,18.5577617 L44.2781565,0.85957992 C44.3433615,0.364859571 44.7739141,-0.00410371003 45.281182,3.44655739e-05 L45.3241688,3.44655739e-05 Z M0.818495782,0.0423071928 L1.09074555,0.0423071928 C1.57195813,0.0122518191 2.00118288,0.337867693 2.09377102,0.803216284 L2.09377102,11.8927617 C4.03986179,9.93828767 6.64223565,8.74635743 9.41585695,8.53912537 C12.881976,8.54208079 16.069615,10.4066792 17.7266394,13.400489 C18.4538389,14.6213528 18.8578366,16.0021664 18.9016121,17.4163981 L18.9016121,28.7877617 C18.863303,29.3273144 18.3902968,29.7358911 17.8412709,29.7036708 C17.2995813,29.6701395 16.865694,29.2494693 16.8239165,28.7173072 L16.8239165,17.895489 C16.8239165,14.7297314 15.16176,12.4470042 11.837447,11.0473072 C11.0599815,10.8243091 10.2543748,10.7104565 9.44451482,10.7091254 C6.12975446,10.7091254 3.80369063,12.4329133 2.46632334,15.880489 C2.17504806,17.0463277 2.04491586,18.2454586 2.07944209,19.445489 L2.07944209,28.7877617 C2.04113296,29.3273144 1.56812679,29.7358911 1.01910088,29.7036708 C0.477411248,29.6701395 0.0435239661,29.2494693 0.00174647094,28.7173072 L0.00174647094,1.12730719 C-0.0283781379,0.615603554 0.334342109,0.162177843 0.847153653,0.070489011 L0.818495782,0.0423071928 Z" id="logo"></path>
            </g>
        </g>
    </g>
</svg>