<?xml version="1.0" encoding="UTF-8"?>
<svg width="12px" height="12px" viewBox="0 0 12 12" version="1.1" xmlns="http://www.w3.org/2000/svg" xmlns:xlink="http://www.w3.org/1999/xlink">
    <!-- Generator: Sketch 41.2 (35397) - http://www.bohemiancoding.com/sketch -->
    <title>link</title>
    <desc>Created with Sketch.</desc>
    <defs></defs>
    <g id="Mockups" stroke="none" stroke-width="1" fill="none" fill-rule="evenodd">
        <g id="Press---Press-Coverage" transform="translate(-637.000000, -983.000000)" fill="#2CD4AE">
            <g id="content" transform="translate(-5.000000, 545.000000)">
                <path d="M653.999625,438 L650.999813,438.374977 L651.914005,439.289169 L648.351728,442.851447 L647.953128,443.250047 L648.749953,444.046872 L649.148553,443.648272 L652.710831,440.085995 L653.625023,441.000187 L654,438.000375 L653.999625,438 Z M642.750328,439.12493 C642.569214,439.12493 642.357728,439.189426 642.211112,439.336041 C642.064496,439.482657 642,439.693769 642,439.875258 L642,449.249672 C642,449.430786 642.064496,449.642272 642.211112,449.788888 C642.357728,449.935504 642.568839,450 642.750328,450 L652.124742,450 C652.305856,450 652.517343,449.935504 652.663959,449.788888 C652.810574,449.642272 652.87507,449.431161 652.87507,449.249672 L652.87507,443.625023 L651.750141,443.625023 L651.750141,448.874695 L643.12568,448.874695 L643.12568,440.250234 L648.750328,440.250234 L648.750328,439.125305 L642.750703,439.125305 L642.750328,439.12493 Z" id="link"></path>
            </g>
        </g>
    </g>
</svg>