<?xml version="1.0" encoding="UTF-8"?>
<svg width="60px" height="11px" viewBox="0 0 60 11" version="1.1" xmlns="http://www.w3.org/2000/svg" xmlns:xlink="http://www.w3.org/1999/xlink">
    <!-- Generator: Sketch 42 (36781) - http://www.bohemiancoding.com/sketch -->
    <title>stars</title>
    <desc>Created with Sketch.</desc>
    <defs></defs>
    <g id="Mockups" stroke="none" stroke-width="1" fill="none" fill-rule="evenodd">
        <g id="Press---What-our-users-are-saying" transform="translate(-791.000000, -1015.000000)" fill="#FF8000">
            <g id="content" transform="translate(426.000000, 742.000000)">
                <g id="review" transform="translate(365.000000, 163.000000)">
                    <g id="stars" transform="translate(0.000000, 110.000000)">
                        <polygon id="Star" points="6 9 2.47328849 10.854102 3.14683045 6.92705098 0.293660902 4.14589803 4.23664424 3.57294902 6 0 7.76335576 3.57294902 11.7063391 4.14589803 8.85316955 6.92705098 9.52671151 10.854102"></polygon>
                        <polygon id="Star" points="18 9 14.4732885 10.854102 15.1468305 6.92705098 12.2936609 4.14589803 16.2366442 3.57294902 18 0 19.7633558 3.57294902 23.7063391 4.14589803 20.8531695 6.92705098 21.5267115 10.854102"></polygon>
                        <polygon id="Star-Copy-2" points="30 9 26.4732885 10.854102 27.1468305 6.92705098 24.2936609 4.14589803 28.2366442 3.57294902 30 0 31.7633558 3.57294902 35.7063391 4.14589803 32.8531695 6.92705098 33.5267115 10.854102"></polygon>
                        <polygon id="Star-Copy" points="42 9 38.4732885 10.854102 39.1468305 6.92705098 36.2936609 4.14589803 40.2366442 3.57294902 42 0 43.7633558 3.57294902 47.7063391 4.14589803 44.8531695 6.92705098 45.5267115 10.854102"></polygon>
                        <polygon id="Star-Copy" points="54 9 50.4732885 10.854102 51.1468305 6.92705098 48.2936609 4.14589803 52.2366442 3.57294902 54 0 55.7633558 3.57294902 59.7063391 4.14589803 56.8531695 6.92705098 57.5267115 10.854102"></polygon>
                    </g>
                </g>
            </g>
        </g>
    </g>
</svg>